<?xml version="1.0" encoding="utf-8"?>
<!-- Generator: Adobe Illustrator 26.0.2, SVG Export Plug-In . SVG Version: 6.00 Build 0)  -->
<svg version="1.1" id="Ebene_1" xmlns="http://www.w3.org/2000/svg" xmlns:xlink="http://www.w3.org/1999/xlink" x="0px" y="0px"
	 viewBox="0 0 271 97.3" style="enable-background:new 0 0 271 97.3;" xml:space="preserve">
<g>
	<path d="M52.7,95.3c-25.4,0-46-20.6-46-46s20.6-46,46-46c24.6,0,124.1,19.3,125.3,43.6C176.7,20.8,75.8,0,49.3,0
		C22.1,0,0,22.1,0,49.3c0,27.2,22.1,49.3,49.3,49.3c26.4,0,127.4-20.8,128.7-46.9C176.8,76,77.3,95.3,52.7,95.3z"/>
	<path d="M60,88c-21.4,0-38.7-17.3-38.7-38.7S38.6,10.7,60,10.7c20.7,0,117,16.2,118,36.7C177,24.7,78.9,6.7,56,6.7
		c-23.6,0-42.7,19.1-42.7,42.7S32.4,92,56,92c22.9,0,121-18,122-40.7C177,71.8,80.7,88,60,88z"/>
	<path d="M67.8,80.2c-17,0-30.8-13.8-30.8-30.8s13.8-30.8,30.8-30.8c16.5,0,109.4,13,110.2,29.2c-0.8-18.5-95.5-33.2-114.2-33.2
		C44.6,14.5,29,30.1,29,49.3s15.6,34.8,34.8,34.8c18.7,0,113.3-14.7,114.2-33.2C177.2,67.2,84.3,80.2,67.8,80.2z"/>
	<path d="M71.8,22.5C57,22.5,45,34.5,45,49.3s12,26.8,26.8,26.8c14.8,0,106.2-12,106.2-26.8S86.7,22.5,71.8,22.5z M76.5,71.5
		c-12.2,0-22.2-9.9-22.2-22.2s9.9-22.2,22.2-22.2s101.5,9.9,101.5,22.2S88.7,71.5,76.5,71.5z"/>
	<path d="M80.7,31.3c-9.9,0-18,8.1-18,18s8.1,18,18,18s97.4-8.1,97.4-18S90.6,31.3,80.7,31.3z M85,63c-7.5,0-13.7-6.1-13.7-13.7
		S77.5,35.7,85,35.7c7.5,0,93,6.1,93,13.7S92.6,63,85,63z"/>
	<path d="M93.2,54.8c-3,0-5.5-2.5-5.5-5.5c0-3,2.5-5.5,5.5-5.5c2.8,0,84.6,2.2,84.9,4.9c-0.3-5.2-84-9.3-89.3-9.3
		c-5.5,0-9.9,4.4-9.9,9.9s4.4,9.9,9.9,9.9c5.3,0,89-4.1,89.3-9.3C177.7,52.7,96,54.8,93.2,54.8z"/>
</g>
</svg>
