<?xml version="1.0" encoding="utf-8"?>
<!-- Generator: Adobe Illustrator 26.0.2, SVG Export Plug-In . SVG Version: 6.00 Build 0)  -->
<svg version="1.1" id="Ebene_1" xmlns="http://www.w3.org/2000/svg" xmlns:xlink="http://www.w3.org/1999/xlink" x="0px" y="0px"
	 viewBox="0 0 105.8 220" style="enable-background:new 0 0 105.8 220;" xml:space="preserve">
<style type="text/css">
	.st0{fill:#1E1E1E;}
</style>
<polygon class="st0" points="50.5,199.5 50.5,20.5 54.5,20.5 54.5,199.5 "/>
<path class="st0" d="M40.5,12c0-6.6,5.4-12,12-12l0,0c6.6,0,12,5.4,12,12l0,0c0,6.6-5.4,12-12,12l0,0C45.9,24,40.5,18.6,40.5,12
	L40.5,12z M44.5,12c0,4.4,3.6,8,8,8l0,0c4.4,0,8-3.6,8-8l0,0c0-4.4-3.6-8-8-8l0,0C48.1,4,44.5,7.6,44.5,12L44.5,12z"/>
<path class="st0" d="M40.5,208c0-6.6,5.4-12,12-12l0,0c6.6,0,12,5.4,12,12l0,0c0,6.6-5.4,12-12,12l0,0C45.9,220,40.5,214.6,40.5,208
	L40.5,208z M44.5,208c0,4.4,3.6,8,8,8l0,0c4.4,0,8-3.6,8-8l0,0c0-4.4-3.6-8-8-8l0,0C48.1,200,44.5,203.6,44.5,208L44.5,208z"/>
<polygon class="st0" points="20.5,112 20.5,108 84,108 84,112 "/>
<path class="st0" d="M81.8,110c0-6.6,5.4-12,12-12l0,0c6.6,0,12,5.4,12,12l0,0c0,6.6-5.4,12-12,12l0,0v-2v-2c4.4,0,8-3.6,8-8l0,0
	c0-4.4-3.6-8-8-8l0,0c-4.4,0-8,3.6-8,8l0,0c0,4.4,3.6,8,8,8l0,0v2v2C87.2,122,81.8,116.6,81.8,110L81.8,110z"/>
<path class="st0" d="M0,110c0-6.6,5.4-12,12-12l0,0c6.6,0,12,5.4,12,12l0,0c0,6.6-5.4,12-12,12l0,0v-2v-2c4.4,0,8-3.6,8-8l0,0
	c0-4.4-3.6-8-8-8l0,0c-4.4,0-8,3.6-8,8l0,0c0,4.4,3.6,8,8,8l0,0v2v2C5.4,122,0,116.6,0,110L0,110z"/>
</svg>
