<?xml version="1.0" encoding="utf-8"?>
<!-- Generator: Adobe Illustrator 26.0.2, SVG Export Plug-In . SVG Version: 6.00 Build 0)  -->
<svg version="1.1" id="Ebene_1" xmlns="http://www.w3.org/2000/svg" xmlns:xlink="http://www.w3.org/1999/xlink" x="0px" y="0px"
	 viewBox="0 0 129.9 133.4" style="enable-background:new 0 0 129.9 133.4;" xml:space="preserve">
<path d="M129.9,133.4c-29-11.4-48.1-40.4-75.5-55.1c-2.9-1.5-5.9-2.6-9.1-3.4c-2.5-1-5-1.9-7.5-2.7c-7.5-2.3-15.2-3.6-23.3-2.6
	c-3,0.5-5.9,1.4-8.9,2.8c-3.9,2.7-6.2,4.2-6.7,3.7c-0.5-0.5,1-2.8,4.1-6.4c2.5-2.1,4.7-2.8,7.5-4.3c9.5-1.8,18,0,26.4,2.7
	c2.8,0.9,5.6,1.9,8.4,3c2.6,1,5.1,2.1,7.6,3.2c8.4,3.8,28.2,17,36.7,19.8c-2.1-10.6-17.7-29.5-20.8-39.6c-1.2-2.8-2.3-5.7-3.2-8.6
	c-1.2-3.1-2.3-6.1-3.2-9.2c-1.8-6.2-2.6-12.5-0.9-19.3c0.6-2.5,1.4-4.9,2.6-7.2c1.2-2.3,2.7-4.5,4.6-6.6c3.6-3,6-4.5,6.5-4
	c0.5,0.5-1,2.8-3.9,6.6C69.4,9.1,68,12,67,14.9c-1,2.9-1.6,6-1.8,9.1c0,3.4,0.4,6.7,1,9.9c0.6,3.3,1.5,6.5,2.5,9.6
	c1,3.1,2.1,6,3.3,8.9C86,80.3,108,103.7,127,128.4C128.5,130.6,129.5,132.2,129.9,133.4z"/>
</svg>
